<svg xmlns="http://www.w3.org/2000/svg" xmlns:svg="http://www.w3.org/2000/svg" id="svg2" width="800" height="800" style="display:inline"><defs id="defs4"><svg:clipPath id="clip_shape" clipPathUnits="userSpaceOnUse"><svg:path id="clip_path" d="m 643.16964,84.82202 c -168.34821,-32.44208 -317.99107,-32.44208 -486.33928,0 -37.99525,5.84542 -60.792408,23.3817 -60.792408,46.76339 0,0 -30.3962,537.77901 303.962048,607.92413 334.35825,-70.14512 303.96205,-607.92413 303.96205,-607.92413 0,-23.38169 -22.79716,-40.91797 -60.79241,-46.76339 z" style="opacity:1;fill:none;stroke:red;stroke-width:100;stroke-linecap:butt;stroke-linejoin:miter;stroke-miterlimit:4;stroke-opacity:1;stroke-dasharray:none"/></svg:clipPath></defs><metadata id="metadata7"/><path id="shield_base" d="m 643.16964,84.82202 c -168.34821,-32.44208 -317.99107,-32.44208 -486.33928,0 -37.99525,5.84542 -60.792408,23.3817 -60.792408,46.76339 0,0 -30.3962,537.77901 303.962048,607.92413 334.35825,-70.14512 303.96205,-607.92413 303.96205,-607.92413 0,-23.38169 -22.79716,-40.91797 -60.79241,-46.76339 z" style="opacity:1;fill:none;stroke:red;stroke-width:100;stroke-linecap:butt;stroke-linejoin:miter;stroke-miterlimit:4;stroke-opacity:1;stroke-dasharray:none"/><path id="circle_base" d="m 720,400 a 320,320 0 1 1 -640,0 320,320 0 1 1 640,0 z" style="opacity:0;fill:#050;fill-opacity:1;stroke:#000;stroke-width:100;stroke-linecap:butt;stroke-linejoin:round;stroke-miterlimit:4;stroke-opacity:1;stroke-dasharray:none"/><path id="fatshield_base" d="M 120,140 C 420,60 380,60 680,140 700,440 640,580 400,720 160,580 100,440 120,140 z" style="opacity:0;fill:none;stroke:#000;stroke-width:100;stroke-linecap:butt;stroke-linejoin:miter;stroke-miterlimit:4;stroke-opacity:1;stroke-dasharray:none"/><path id="simpleshield_base" d="m 100,60 600,0 0,260 C 700,540 580,640 400,720 220,640 100,540 100,320 l 0,-260 z" style="opacity:0;fill:none;stroke:#000;stroke-width:100;stroke-linecap:butt;stroke-linejoin:miter;stroke-miterlimit:4;stroke-opacity:1;stroke-dasharray:none"/><g id="solid" clip-path="url(#clip_shape)"><rect id="solid_bg" width="800" height="800" x="0" y="0" style="fill:#fff;fill-opacity:1;stroke:none"/></g><g id="twotone" style="opacity:0"><rect id="twotone_right" width="400" height="800" x="400" y="0" style="fill:#fff;fill-opacity:1;fill-rule:evenodd;stroke:#000;stroke-width:0;stroke-linecap:butt;stroke-linejoin:miter;stroke-opacity:1"/></g><g id="twotone_vert" style="opacity:0"><rect id="twotone_vert_bottom" width="800" height="400" x="0" y="400" style="fill:#803300;fill-opacity:1;stroke:none"/></g><g id="vertstripes_thin" style="opacity:0"><g id="vertstripes_thin_grp"><rect id="vertstripes_thin_6" width="35" height="800" x="315" y="0" style="fill:#000;fill-opacity:1;stroke:none"/><rect id="vertstripes_thin_4" width="35" height="800" x="665" y="0" style="fill:#000;fill-opacity:1;stroke:none"/><rect id="vertstripes_thin_2" width="35" height="800" x="525" y="0" style="fill:#000;fill-opacity:1;stroke:none"/><rect id="vertstripes_thin_0" width="35" height="800" x="385" y="0" style="fill:#000;fill-opacity:1;stroke:none"/><rect id="vertstripes_thin_8" width="35" height="800" x="175" y="0" style="fill:#000;fill-opacity:1;stroke:none"/><rect id="vertstripes_thin_9" width="35" height="800" x="105" y="0" style="fill:#000;fill-opacity:1;stroke:none"/><rect id="vertstripes_thin_1" width="35" height="800" x="455" y="0" style="fill:#000;fill-opacity:1;stroke:none"/><rect id="vertstripes_thin_3" width="35" height="800" x="595" y="0" style="fill:#000;fill-opacity:1;stroke:none"/><rect id="vertstripes_thin_5" width="35" height="800" x="735" y="0" style="fill:#000;fill-opacity:1;stroke:none"/><rect id="vertstripes_thin_7" width="35" height="800" x="245" y="0" style="fill:#000;fill-opacity:1;stroke:none"/><rect id="vertstripes_thin_10" width="35" height="800" x="35" y="0" style="fill:#000;fill-opacity:1;stroke:none"/></g></g><g id="diagstripe_single" style="opacity:0"><path id="diagstripe_single_stripe" d="M 0,700 700,0 800,0 800,100 100,800 0,800 0,700 z" style="fill:#a40000;stroke:red;stroke-width:20px;stroke-linecap:butt;stroke-linejoin:miter;stroke-opacity:1"/></g><g id="foursquare" style="opacity:0"><rect id="foursquare_topright" width="400" height="400" x="400" y="0" style="fill:#520;fill-opacity:1;stroke:none"/><rect id="foursquare_bottomright" width="400" height="400" x="400" y="400" style="fill:#f60;fill-opacity:1;stroke:none"/><rect id="foursquare_bottomleft" width="400" height="400" x="0" y="400" style="fill:#520;fill-opacity:1;stroke:none"/></g><g id="shieldcross" style="opacity:0"><path id="shieldcross_cross" d="m 360,0 0,320 -360,0 0,80 360,0 0,400 80,0 0,-400 360,0 0,-80 -360,0 0,-320 -80,0 z" style="fill:red;fill-opacity:1;stroke:#000;stroke-width:20;stroke-miterlimit:4;stroke-opacity:1;stroke-dasharray:none"/></g><g id="vertstripe_fat" style="opacity:0"><rect id="verstripe_fat_stripe" width="280" height="800" x="260" y="0" style="fill:#241c1c;fill-opacity:1;stroke:#000;stroke-width:20;stroke-miterlimit:4;stroke-opacity:1;stroke-dasharray:none"/></g><g id="vertstripes_med" style="opacity:0"><g id="vertstripes_med_grp"><rect id="vertstripes_med_0" width="70" height="800" x="365" y="0" style="fill:#241c1c;fill-opacity:1;stroke:#000;stroke-width:20;stroke-miterlimit:4;stroke-opacity:1;stroke-dasharray:none"/><rect id="vertstripes_med_5" width="70" height="800" x="645" y="0" style="fill:#241c1c;fill-opacity:1;stroke:#000;stroke-width:20;stroke-miterlimit:4;stroke-opacity:1;stroke-dasharray:none"/><rect id="vertstripes_med_4" width="70" height="800" x="505" y="0" style="fill:#241c1c;fill-opacity:1;stroke:#000;stroke-width:20;stroke-miterlimit:4;stroke-opacity:1;stroke-dasharray:none"/><rect id="vertstripes_med_3" width="70" height="800" x="-55" y="0" style="fill:#241c1c;fill-opacity:1;stroke:#000;stroke-width:20;stroke-miterlimit:4;stroke-opacity:1;stroke-dasharray:none"/><rect id="vertstripes_med_2" width="70" height="800" x="85" y="0" style="fill:#241c1c;fill-opacity:1;stroke:#000;stroke-width:20;stroke-miterlimit:4;stroke-opacity:1;stroke-dasharray:none"/><rect id="vertstripes_med_1" width="70" height="800" x="225" y="0" style="fill:#241c1c;fill-opacity:1;stroke:#000;stroke-width:20;stroke-miterlimit:4;stroke-opacity:1;stroke-dasharray:none"/></g><rect id="vertstripes_med_6" width="70" height="800" x="785" y="0" style="fill:#241c1c;fill-opacity:1;stroke:#000;stroke-width:20;stroke-miterlimit:4;stroke-opacity:1;stroke-dasharray:none"/></g><g id="v" style="opacity:0;fill:none;stroke:#000;stroke-opacity:1"><path id="v_v" d="M 100,0 400,300 700,0 800,0 800,100 400,500 0,100 0,0 100,0 z" style="fill:none;stroke:#000;stroke-width:20;stroke-linecap:butt;stroke-linejoin:round;stroke-miterlimit:4;stroke-opacity:1;stroke-dasharray:none"/></g><g id="x" style="opacity:0"><path id="x_x" d="M 0,0 0,100 300,400 0,700 0,800 100,800 400,500 700,800 800,800 800,700 500,400 800,100 800,0 700,0 425,275 400,300 375,275 100,0 0,0 z" style="fill:#520;fill-opacity:1;stroke:#000;stroke-width:20;stroke-linecap:butt;stroke-linejoin:round;stroke-miterlimit:4;stroke-opacity:1;stroke-dasharray:none"/></g><g id="horzstripe_fat" style="opacity:0"><rect id="horzstripe_fat_stripe" width="800" height="280" x="0" y="260" style="fill:#bec8b7;fill-opacity:1;stroke:#000;stroke-width:20;stroke-miterlimit:4;stroke-opacity:1;stroke-dasharray:none"/></g><g id="horzstripes_med" style="opacity:0"><g id="horzstripes_med_grp"><rect id="horzstripes_med_0" width="800" height="70" x="0" y="365" style="fill:#241c1c;fill-opacity:1;stroke:#000;stroke-width:20;stroke-miterlimit:4;stroke-opacity:1;stroke-dasharray:none"/><rect id="horzstripes_med_1" width="800" height="70" x="0" y="225" style="fill:#241c1c;fill-opacity:1;stroke:#000;stroke-width:20;stroke-miterlimit:4;stroke-opacity:1;stroke-dasharray:none"/><rect id="horzstripes_med_2" width="800" height="70" x="0" y="85" style="fill:#241c1c;fill-opacity:1;stroke:#000;stroke-width:20;stroke-miterlimit:4;stroke-opacity:1;stroke-dasharray:none"/><rect id="horzstripes_med_3" width="800" height="70" x="0" y="-55" style="fill:#241c1c;fill-opacity:1;stroke:#000;stroke-width:20;stroke-miterlimit:4;stroke-opacity:1;stroke-dasharray:none"/><rect id="horzstripes_med_4" width="800" height="70" x="0" y="505" style="fill:#241c1c;fill-opacity:1;stroke:#000;stroke-width:20;stroke-miterlimit:4;stroke-opacity:1;stroke-dasharray:none"/><rect id="horzstripes_med_5" width="800" height="70" x="0" y="645" style="fill:#241c1c;fill-opacity:1;stroke:#000;stroke-width:20;stroke-miterlimit:4;stroke-opacity:1;stroke-dasharray:none"/><rect id="horzstripes_med_6" width="800" height="70" x="0" y="785" style="fill:#241c1c;fill-opacity:1;stroke:#000;stroke-width:20;stroke-miterlimit:4;stroke-opacity:1;stroke-dasharray:none"/></g></g><g id="tritone" style="opacity:0"><rect id="tritone_0" width="266.667" height="800" x="266.667" y="0" style="fill:#0f0;fill-opacity:1;stroke:#000;stroke-width:0;stroke-linecap:butt;stroke-linejoin:round;stroke-miterlimit:4;stroke-opacity:1;stroke-dasharray:none"/><rect id="tritone_1" width="266.667" height="800" x="533.333" y="0" style="fill:#050;fill-opacity:1;stroke:#000;stroke-width:0;stroke-linecap:butt;stroke-linejoin:round;stroke-miterlimit:4;stroke-opacity:1;stroke-dasharray:none"/></g><g id="tritone_vert" style="opacity:0"><rect id="tritone_vert_0" width="800" height="266.667" x="0" y="266.667" style="fill:#0f0;fill-opacity:1;stroke:#000;stroke-width:0;stroke-linecap:butt;stroke-linejoin:round;stroke-miterlimit:4;stroke-opacity:1;stroke-dasharray:none"/><rect id="tritone_vert_1" width="800" height="266.667" x="0" y="533.333" style="fill:#050;fill-opacity:1;stroke:#000;stroke-width:0;stroke-linecap:butt;stroke-linejoin:round;stroke-miterlimit:4;stroke-opacity:1;stroke-dasharray:none"/></g><g id="shallow_v" style="opacity:0"><path id="shallow_v_v" d="M 400,500 0,340 0,240 400,400 800,240 800,340 400,500 z" style="fill:#f95;fill-opacity:1;stroke:#000;stroke-width:20;stroke-linecap:butt;stroke-linejoin:round;stroke-miterlimit:4;stroke-opacity:1;stroke-dasharray:none"/></g></svg>