<svg xmlns="http://www.w3.org/2000/svg" xmlns:svg="http://www.w3.org/2000/svg" xmlns:xlink="http://www.w3.org/1999/xlink" id="svg3478" width="138.459" height="22.35" version="1.1"><defs id="defs3480"><linearGradient id="linearGradient3833" x1="676.048" x2="571.417" y1="103.763" y2="34.009" gradientTransform="matrix(-0.0055,-0.0579,0.5204,-0.0082,-67.19,40.52)" gradientUnits="userSpaceOnUse" xlink:href="#linearGradient2180"/><linearGradient id="linearGradient2180"><stop style="stop-color:#b0b0b0;stop-opacity:1" id="stop2181" offset="0"/><stop style="stop-color:#e8e8e9;stop-opacity:1" id="stop2182" offset="1"/></linearGradient><linearGradient id="linearGradient3829" x1="130.541" x2="130.541" y1="786.663" y2="822.546" gradientTransform="matrix(-0.0283,-0.2953,0.102,-0.0016,-67.19,40.52)" gradientUnits="userSpaceOnUse" xlink:href="#linearGradient2180"/><linearGradient id="linearGradient3817" x1="151.102" x2="177.237" y1="697.501" y2="685.193" gradientTransform="matrix(-0.0249,-0.2606,0.1156,-0.0018,-67.19,40.52)" gradientUnits="userSpaceOnUse" xlink:href="#linearGradient2180"/><linearGradient id="linearGradient3814" x1="666.226" x2="692.384" y1="107.832" y2="17.733" gradientTransform="matrix(-0.0055,-0.0579,0.5204,-0.0082,-67.19,40.52)" gradientUnits="userSpaceOnUse" xlink:href="#linearGradient2180"/><linearGradient id="linearGradient3811" x1="423.394" x2="556.42" y1="10.073" y2="155.444" gradientTransform="matrix(-0.0077,-0.0809,0.3725,-0.0058,-67.19,40.52)" gradientUnits="userSpaceOnUse" xlink:href="#linearGradient2199"/><linearGradient id="linearGradient2199"><stop style="stop-color:#0163ff;stop-opacity:.10112359" id="stop2200" offset="0"/><stop style="stop-color:#fff;stop-opacity:0" id="stop2201" offset="1"/></linearGradient><linearGradient id="linearGradient3807" x1="145.819" x2="193.428" y1="537.138" y2="541.288" gradientTransform="matrix(-0.0252,-0.2631,0.1145,-0.0018,-67.19,40.52)" gradientUnits="userSpaceOnUse" xlink:href="#linearGradient2180"/><linearGradient id="linearGradient3804" x1="143.798" x2="106.52" y1="521.995" y2="522.718" gradientTransform="matrix(-0.0251,-0.2622,0.1149,-0.0018,-67.19,40.52)" gradientUnits="userSpaceOnUse" xlink:href="#linearGradient2180"/><linearGradient id="linearGradient3801" x1="147.873" x2="118.722" y1="687.357" y2="673.501" gradientTransform="matrix(-0.0244,-0.255,0.1181,-0.0018,-67.19,40.52)" gradientUnits="userSpaceOnUse" xlink:href="#linearGradient2180"/></defs><metadata id="metadata3483"/><g id="layer1" transform="translate(-170.74363,-558.32741)"><g id="g3836" transform="translate(241.46238,568.57741)"><rect id="rect3391-9" width="138.4" height="22.34" x="-70.66" y="-10.24" style="fill:#00ff26;fill-opacity:1;stroke:none"/><path style="fill:#000;fill-opacity:1;fill-rule:evenodd;stroke:#000;stroke-width:.13559999pt;stroke-linecap:butt;stroke-linejoin:miter;stroke-opacity:1" id="path913" d="m -59.19,8.061 48.9,-2.725 -1.08,-9.441 -50.21,-1.093 -9,6.958 11.39,6.301 z"/><path style="fill:url(#linearGradient3833);fill-opacity:1;fill-rule:evenodd;stroke:none" id="path1556" d="M -59.56,7.785 -10.74,4.962 -11.18,0.4556 -70.15,1.577 -59.56,7.785 z"/><path style="fill:#000;fill-opacity:1;fill-rule:evenodd;stroke:#000;stroke-width:.13559999pt;stroke-linecap:butt;stroke-linejoin:miter;stroke-opacity:1" id="path2830" d="M 9.695,5.424 13.55,4.143 12.73,-3.634 8.955,-4.553 9.695,5.424 z"/><path style="fill:url(#linearGradient3829);fill-opacity:1;fill-rule:evenodd;stroke:none" id="path1553" d="M 9.925,5.232 13.07,3.916 12.47,-3.279 9.085,-4.492 9.925,5.232 z"/><path style="fill:#000;fill-opacity:1;fill-rule:evenodd;stroke:#000;stroke-width:.16670001pt;stroke-linecap:butt;stroke-linejoin:miter;stroke-opacity:1" id="path2832" d="m -10.48,5.116 4.645,-0.332 0.545,0.271 0.764,0.06 0.294,-0.44 1.234,-0.08 0.591,0.36 0.74,-0.03 0.319,-0.401 1.2984,-0.153 0,0 0.494,0.446 0.7826,-0.05 0.299,-0.484 1.175,0.01 0.64,0.393 0.637,0 0.3,-0.485 1.085,-0.126 0.511,0.446 0.828,0.02 0.245,-0.534 0,-0.02 0.178,0 -0.218,-2.786 1.266,2.611 0.591,0.411 0.691,-0.01 0.3,-0.485 -3.157,-6.542 -0.05,-0.627 -0.282,0 -0.49,-0.456 -0.751,0.03 -0.356,0.298 -1.426,0.07 -0.483,-0.48 -0.7,0.09 -0.345,0.304 -1.1916,0.03 -0.551,-0.526 -0.726,-0.06 -0.4014,0.51 -1.113,-0.07 -0.652,-0.413 -0.653,0.01 -0.409,0.426 -1.309,-0.07 -0.594,-0.382 -0.686,0.01 -0.369,0.325 -1.325,0.06 -0.595,-0.466 -0.68,0.01 -0.37,0.421 -1.42,-0.03 0.86,8.899 z"/><path style="fill:#303030;fill-opacity:1;fill-rule:evenodd;stroke:none" id="path1545" d="M -10.61,4.921 7.165,4.009 6.591,-3.424 -11.3,-3.777 l 0.69,8.698 z"/><path style="fill:#000090;fill-opacity:1;fill-rule:evenodd;stroke:#000;stroke-width:.13559999pt;stroke-linecap:butt;stroke-linejoin:miter;stroke-opacity:1" id="path2206" d="m -4.255,4.567 -3.961,-8.278 -0.594,-0.47 -0.69,0.01 -0.37,0.425 4.039,8.397 0.59,0.411 0.688,-0.01 0.298,-0.485 z"/><path style="fill:#000090;fill-opacity:1;fill-rule:evenodd;stroke:#000;stroke-width:.13559999pt;stroke-linecap:butt;stroke-linejoin:miter;stroke-opacity:1" id="path2208" d="m 9.785,3.747 -3.435,-7.146 -0.596,-0.47 -0.688,0.01 -0.373,0.426 3.52,7.265 0.59,0.411 0.692,-0.01 0.29,-0.485 z"/><path style="fill:#000;fill-opacity:1;fill-rule:evenodd;stroke:#000;stroke-width:.13559999pt;stroke-linecap:butt;stroke-linejoin:miter;stroke-opacity:1" id="path1550" d="M 7.202,9.539 11.63,8.656 9.905,-7.89 5.738,-8.333 7.202,9.539 z"/><path style="fill:#000090;fill-opacity:1;fill-rule:evenodd;stroke:#000;stroke-width:.13559999pt;stroke-linecap:butt;stroke-linejoin:miter;stroke-opacity:1" id="path2207" d="M 6.992,4.031 3.387,-3.412 2.79,-3.883 2.103,-3.872 1.73,-3.446 5.416,4.116 6.006,4.527 6.694,4.516 6.992,4.031 z"/><path style="fill:#000090;fill-opacity:1;fill-rule:evenodd;stroke:#000;stroke-width:.13559999pt;stroke-linecap:butt;stroke-linejoin:miter;stroke-opacity:1" id="path2203" d="m 4.324,4.223 -3.7776,-7.801 -0.596,-0.47 -0.688,0.01 -0.3724,0.426 3.857,7.92 0.591,0.411 0.687,-0.01 0.299,-0.485 z"/><path style="fill:#000090;fill-opacity:1;fill-rule:evenodd;stroke:#000;stroke-width:.13559999pt;stroke-linecap:butt;stroke-linejoin:miter;stroke-opacity:1" id="path2204" d="m 1.575,4.296 -3.858,-7.92 -0.596,-0.47 -0.688,0.01 -0.372,0.425 L -6.183e-4,4.38 0.5894,4.791 1.277,4.781 1.575,4.296 z"/><path style="fill:#000090;fill-opacity:1;fill-rule:evenodd;stroke:#000;stroke-width:.13559999pt;stroke-linecap:butt;stroke-linejoin:miter;stroke-opacity:1" id="path2205" d="m -1.371,4.462 -3.875,-8.099 -0.596,-0.471 -0.688,0.01 -0.373,0.426 3.955,8.218 0.591,0.411 0.687,-0.01 0.299,-0.485 z"/><path style="fill:url(#linearGradient3817);fill-opacity:1;fill-rule:evenodd;stroke:none" id="path2193" d="M 5.863,-8.203 9.735,-7.63 10.69,0.4166 6.933,0.7892 5.863,-8.203 z"/><path style="fill:url(#linearGradient3814);fill-opacity:1;fill-rule:evenodd;stroke:none" id="path2184" d="m -60.79,-5.021 49.22,1.288 0.43,4.5051 -59.01,0.7259 9.36,-6.519 z"/><path style="fill:url(#linearGradient3811);fill-opacity:1;fill-rule:evenodd;stroke:none" id="path2196" d="m -70.17,1.704 10.59,6.208 48.82,-2.823 -0.4,-4.1902 0,-0.3162 -0.4,-4.1896 -49.21,-1.288 -9.38,6.52 11.8,-0.145 -11.79,0.224 z"/><path style="fill:#000;fill-opacity:1;fill-rule:evenodd;stroke:#000;stroke-width:.13559999pt;stroke-linecap:butt;stroke-linejoin:miter;stroke-opacity:1" id="path1543" d="m -10.01,11.99 5.503,-0.35 -3.251,-10.8022 0.77,-10.9978 -5.382,0 1.41,10.9887 0.95,11.1813 z"/><path style="fill:url(#linearGradient3807);fill-opacity:1;fill-rule:evenodd;stroke:none" id="path2189" d="M -12,-10.03 -7.257,-9.926 -7.958,0.733 -10.91,0.8344 -12,-10.03 z"/><path style="fill:url(#linearGradient3804);fill-opacity:1;fill-rule:evenodd;stroke:none" id="path2187" d="M -9.78,11.67 -5.075,11.44 -7.961,0.6497 -10.91,0.7685 -9.78,11.67 z"/><path style="fill:url(#linearGradient3801);fill-opacity:1;fill-rule:evenodd;stroke:none" id="path2191" d="M 7.435,9.19 11.19,8.498 10.69,0.2926 6.92,0.6886 7.435,9.19 z"/><path style="fill:#000;fill-opacity:1;fill-rule:evenodd;stroke:none" id="path2195" d="m -69.8,1.628 58.71,-0.6467 -0.1,-0.6537 -58.6,1.1904 0,0.11 z"/></g></g></svg>