<svg xmlns="http://www.w3.org/2000/svg" width="550" height="370" version="1.1"><rect width="550" height="370" x="0" y="0" fill="#EEE" stroke="#4572A7" stroke-width="0" rx="5" ry="5"/><path fill="none" stroke="#606060" stroke-width="1" d="M 255.19192028713064 7.945657365893545 L 260.19192028713064 7.945657365893545 L 260.8971542862681 31.935293565854153 L 261.22038653587276 42.9305434908361" transform="translate(10,10)" visibility="visible"/><path fill="none" stroke="#606060" stroke-width="1" d="M 166.89645815918988 36.945657365893545 L 171.89645815918988 36.945657365893545 L 254.41416882096502 32.2768668530658 L 255.2481465682838 43.24520679660225" transform="translate(10,10)" visibility="visible"/><path fill="none" stroke="#606060" stroke-width="1" d="M 124.53157217975249 79.73156485528162 L 129.5315721797525 79.73156485528162 L 149.4016547935703 93.19187008659249 L 158.50877599157013 99.3611766509433" transform="translate(10,10)" visibility="visible"/><path fill="none" stroke="#606060" stroke-width="1" d="M 119.41342851509442 255.21712216219294 L 124.41342851509442 255.21712216219294 L 145.03422433259013 242.93775817812795 L 154.48542241560898 237.30971635209818" transform="translate(10,10)" visibility="visible"/><path fill="none" stroke="#606060" stroke-width="1" d="M 115.63542152685008 248.51953717901546 L 120.63542152685008 248.51953717901546 L 141.81036351832816 237.22255388003077 L 151.51554526442226 232.0447698679961" transform="translate(10,10)" visibility="hidden"/><path fill="none" stroke="#606060" stroke-width="1" d="M 105.79501575082713 226.21712216219294 L 110.79501575082713 226.21712216219294 L 135.3141146388087 223.2369477557765 L 145.53108680692404 219.1609841008899" transform="translate(10,10)" visibility="visible"/><path fill="none" stroke="#606060" stroke-width="1" d="M 315.2652891977265 328.7392896792853 L 310.2652891977265 328.7392896792853 L 303.62591904802173 305.67592557048255 L 300.58287439607375 295.10521702061465" transform="translate(10,10)" visibility="visible"/><path fill="none" stroke="#606060" stroke-width="1" d="M 305.99460396593145 11.883180365176578 L 300.99460396593145 11.883180365176578 L 295.7150287470935 35.29527308472287 L 293.29522343845946 46.02581558118159" transform="translate(10,10)" visibility="visible"/><path fill="none" stroke="#606060" stroke-width="1" d="M 347.0489387777211 27.151111337056086 L 342.0489387777211 27.151111337056086 L 330.7476429447781 48.323751996555885 L 325.56788235467917 58.02787896549329" transform="translate(10,10)" visibility="hidden"/><path fill="none" stroke="#606060" stroke-width="1" d="M 376.19599276616105 47.018869922347434 L 371.19599276616105 47.018869922347434 L 355.6194987928204 65.27737028515055 L 348.4802723883726 73.64584961810199" transform="translate(10,10)" visibility="visible"/><path fill="none" stroke="#606060" stroke-width="1" d="M 402.8777423953853 76.01886992234743 L 397.8777423953853 76.01886992234743 L 376.7838119012322 87.83686581396836 L 367.9772089940626 94.4280527507372" transform="translate(10,10)" visibility="visible"/><path fill="none" stroke="#606060" stroke-width="1" d="M 419.5105346408682 105.01886992234743 L 414.5105346408682 105.01886992234743 L 391.44464184159364 112.28097286723539 L 381.48302278871967 116.94639308897513" transform="translate(10,10)" visibility="visible"/><path fill="none" stroke="#606060" stroke-width="1" d="M 428.0199041264269 129.04001266044878 L 423.0199041264269 129.04001266044878 L 399.8420419474552 135.26790996311786 L 389.2188551154265 138.12236289350787" transform="translate(10,10)" visibility="hidden"/><path fill="none" stroke="#606060" stroke-width="1" d="M 430.787615711951 141.16053298645537 L 425.787615711951 141.16053298645537 L 402.203794308823 145.61063051632593 L 391.3945428323893 147.65025855084994" transform="translate(10,10)" visibility="visible"/><path fill="none" stroke="#606060" stroke-width="1" d="M 432.9990225864427 157.20107483534719 L 427.9990225864427 157.20107483534719 L 404.09083898323644 159.29839617347807 L 393.1329214984336 160.25966845345474" transform="translate(10,10)" visibility="hidden"/><path fill="none" stroke="#606060" stroke-width="1" d="M 433.59994556129493 168.6367086523844 L 428.59994556129493 168.6367086523844 L 404.60362046750686 169.05668721521266 L 393.60530479952064 169.2491773898423" transform="translate(10,10)" visibility="hidden"/><g class="highcharts-point"><path fill="#4572A7" stroke="#FFF" stroke-linejoin="round" stroke-width="1" d="M 264.9738025341747 42.87500266786091 A 128.625 128.625 0 0 1 320.2277442043785 55.335087504463104 L 265 171.5 A 0 0 0 0 0 265 171.5 Z" transform="translate(10,10)"/></g><g class="highcharts-point"><path fill="#AA4643" stroke="#FFF" stroke-linejoin="round" stroke-width="1" d="M 320.22786036926334 55.335142732265396 A 128.625 128.625 0 0 1 330.7768544985443 60.96586030878363 L 265 171.5 A 0 0 0 0 0 265 171.5 Z" transform="translate(10,10)"/></g><g class="highcharts-point"><path fill="#89A54E" stroke="#FFF" stroke-linejoin="round" stroke-width="1" d="M 330.7769650326511 60.9659260856934 A 128.625 128.625 0 0 1 363.79082502337826 89.13032404944 L 265 171.5 A 0 0 0 0 0 265 171.5 Z" transform="translate(10,10)"/></g><g class="highcharts-point"><path fill="#80699B" stroke="#FFF" stroke-linejoin="round" stroke-width="1" d="M 363.79090739300483 89.13042284030622 A 128.625 128.625 0 0 1 371.87967328726853 99.93795654813411 L 265 171.5 A 0 0 0 0 0 265 171.5 Z" transform="translate(10,10)"/></g><g class="highcharts-point"><path fill="#3D96AE" stroke="#FFF" stroke-linejoin="round" stroke-width="1" d="M 371.87974484925854 99.93806342784319 A 128.625 128.625 0 0 1 388.4002181963205 135.21258104934324 L 265 171.5 A 0 0 0 0 0 265 171.5 Z" transform="translate(10,10)"/></g><g class="highcharts-point"><path fill="#DB843D" stroke="#FFF" stroke-linejoin="round" stroke-width="1" d="M 388.40025448367777 135.21270444957958 A 128.625 128.625 0 0 1 389.9688285917932 141.05032832040717 L 265 171.5 A 0 0 0 0 0 265 171.5 Z" transform="translate(10,10)"/></g><g class="highcharts-point"><path fill="#92A8CD" stroke="#FFF" stroke-linejoin="round" stroke-width="1" d="M 389.9688590414024 141.05045328925098 A 128.625 128.625 0 0 1 392.4719144904373 154.31565709307912 L 265 171.5 A 0 0 0 0 0 265 171.5 Z" transform="translate(10,10)"/></g><g class="highcharts-point"><path fill="#A47D7C" stroke="#FFF" stroke-linejoin="round" stroke-width="1" d="M 392.4719316747165 154.31578456500222 A 128.625 128.625 0 0 1 393.5169005587524 166.22772385285592 L 265 171.5 A 0 0 0 0 0 265 171.5 Z" transform="translate(10,10)"/></g><g class="highcharts-point"><path fill="#B5CA92" stroke="#FFF" stroke-linejoin="round" stroke-width="1" d="M 393.51690583096433 166.2278523697591 A 128.625 128.625 0 0 1 393.6226855286268 172.27161674682318 L 265 171.5 A 0 0 0 0 0 265 171.5 Z" transform="translate(10,10)"/></g><g class="highcharts-point"><path fill="#4572A7" stroke="#FFF" stroke-linejoin="round" stroke-width="1" d="M 393.6226847569458 172.27174536950832 A 128.625 128.625 0 0 1 156.4746806874553 240.54089869859902 L 265 171.5 A 0 0 0 0 0 265 171.5 Z" transform="translate(10,10)"/></g><g class="highcharts-point"><path fill="#AA4643" stroke="#FFF" stroke-linejoin="round" stroke-width="1" d="M 156.47461164661087 240.54079017324517 A 128.625 128.625 0 0 1 152.5924640426705 234.0214881860763 L 265 171.5 A 0 0 0 0 0 265 171.5 Z" transform="translate(10,10)"/></g><g class="highcharts-point"><path fill="#89A54E" stroke="#FFF" stroke-linejoin="round" stroke-width="1" d="M 152.59240152123851 234.02137577850908 A 128.625 128.625 0 0 1 150.473501284591 230.04973712143735 L 265 171.5 A 0 0 0 0 0 265 171.5 Z" transform="translate(10,10)"/></g><g class="highcharts-point"><path fill="#80699B" stroke="#FFF" stroke-linejoin="round" stroke-width="1" d="M 150.47344273491112 230.04962259490935 A 128.625 128.625 0 0 1 141.6213093429654 207.8605461559058 L 265 171.5 A 0 0 0 0 0 265 171.5 Z" transform="translate(10,10)"/></g><g class="highcharts-point"><path fill="#3D96AE" stroke="#FFF" stroke-linejoin="round" stroke-width="1" d="M 141.6212729824809 207.86042277719696 A 128.625 128.625 0 0 1 253.00516739634025 43.435506029929655 L 265 171.5 A 0 0 0 0 0 265 171.5 Z" transform="translate(10,10)"/></g><g class="highcharts-point"><path fill="#DB843D" stroke="#FFF" stroke-linejoin="round" stroke-width="1" d="M 253.00529546084024 43.4354940351611 A 128.625 128.625 0 0 1 257.4938556988238 43.094204092144196 L 265 171.5 A 0 0 0 0 0 265 171.5 Z" transform="translate(10,10)"/></g><g class="highcharts-point"><path fill="#92A8CD" stroke="#FFF" stroke-linejoin="round" stroke-width="1" d="M 257.49398410462345 43.0941965860641 A 128.625 128.625 0 0 1 264.9498387742907 42.87500978094718 L 265 171.5 A 0 0 0 0 0 265 171.5 Z" transform="translate(10,10)"/></g><g class="highcharts-highcharts-data-labels" visibility="visible"><text x="310.995" y="16.883" text-anchor="start" transform="translate(10,10)" visibility="visible" style="font-family:'lucida grande','lucida sans unicode',verdana,arial,helvetica,sans-serif;font-size:11px;color:undefined;line-height:14px"><tspan style="font-weight:700" x="310.995">Starting</tspan><tspan x="310.995" dy="14">7.06 %</tspan></text><text x="352.049" y="32.151" text-anchor="start" transform="translate(10,10)" visibility="hidden" style="font-family:'lucida grande','lucida sans unicode',verdana,arial,helvetica,sans-serif;font-size:11px;color:undefined;line-height:14px"><tspan style="font-weight:700" x="352.049">Checking Permissions</tspan><tspan x="352.049" dy="14">1.49 %</tspan></text><text x="381.196" y="52.019" text-anchor="start" transform="translate(10,10)" visibility="visible" style="font-family:'lucida grande','lucida sans unicode',verdana,arial,helvetica,sans-serif;font-size:11px;color:undefined;line-height:14px"><tspan style="font-weight:700" x="381.196">Opening Tables</tspan><tspan x="381.196" dy="14">5.39 %</tspan></text><text x="407.878" y="81.019" text-anchor="start" transform="translate(10,10)" visibility="visible" style="font-family:'lucida grande','lucida sans unicode',verdana,arial,helvetica,sans-serif;font-size:11px;color:undefined;line-height:14px"><tspan style="font-weight:700" x="407.878">System Lock</tspan><tspan x="407.878" dy="14">1.67 %</tspan></text><text x="424.511" y="110.019" text-anchor="start" transform="translate(10,10)" visibility="visible" style="font-family:'lucida grande','lucida sans unicode',verdana,arial,helvetica,sans-serif;font-size:11px;color:undefined;line-height:14px"><tspan style="font-weight:700" x="424.511">Init</tspan><tspan x="424.511" dy="14">4.83 %</tspan></text><text x="433.02" y="134.04" text-anchor="start" transform="translate(10,10)" visibility="hidden" style="font-family:'lucida grande','lucida sans unicode',verdana,arial,helvetica,sans-serif;font-size:11px;color:undefined;line-height:14px"><tspan style="font-weight:700" x="433.02">Optimizing</tspan><tspan x="433.02" dy="14">0.74 %</tspan></text><text x="435.788" y="146.161" text-anchor="start" transform="translate(10,10)" visibility="visible" style="font-family:'lucida grande','lucida sans unicode',verdana,arial,helvetica,sans-serif;font-size:11px;color:undefined;line-height:14px"><tspan style="font-weight:700" x="435.788">Statistics</tspan><tspan x="435.788" dy="14">1.67 %</tspan></text><text x="437.999" y="162.201" text-anchor="start" transform="translate(10,10)" visibility="hidden" style="font-family:'lucida grande','lucida sans unicode',verdana,arial,helvetica,sans-serif;font-size:11px;color:undefined;line-height:14px"><tspan style="font-weight:700" x="437.999">Preparing</tspan><tspan x="437.999" dy="14">1.49 %</tspan></text><text x="438.6" y="173.637" text-anchor="start" transform="translate(10,10)" visibility="hidden" style="font-family:'lucida grande','lucida sans unicode',verdana,arial,helvetica,sans-serif;font-size:11px;color:undefined;line-height:14px"><tspan style="font-weight:700" x="438.6">Executing</tspan><tspan x="438.6" dy="14">0.74 %</tspan></text><text x="320.265" y="333.739" text-anchor="start" transform="translate(10,10)" visibility="visible" style="font-family:'lucida grande','lucida sans unicode',verdana,arial,helvetica,sans-serif;font-size:11px;color:undefined;line-height:14px"><tspan style="font-weight:700" x="320.265">Sending Data</tspan><tspan x="320.265" dy="14">40.89 %</tspan></text><text x="114.413" y="260.217" text-anchor="end" transform="translate(10,10)" visibility="visible" style="font-family:'lucida grande','lucida sans unicode',verdana,arial,helvetica,sans-serif;font-size:11px;color:undefined;line-height:14px"><tspan style="font-weight:700" x="114.413">End</tspan><tspan x="114.413" dy="14">0.93 %</tspan></text><text x="110.635" y="253.52" text-anchor="end" transform="translate(10,10)" visibility="hidden" style="font-family:'lucida grande','lucida sans unicode',verdana,arial,helvetica,sans-serif;font-size:11px;color:undefined;line-height:14px"><tspan style="font-weight:700" x="110.635">Query End</tspan><tspan x="110.635" dy="14">0.56 %</tspan></text><text x="100.795" y="231.217" text-anchor="end" transform="translate(10,10)" visibility="visible" style="font-family:'lucida grande','lucida sans unicode',verdana,arial,helvetica,sans-serif;font-size:11px;color:undefined;line-height:14px"><tspan style="font-weight:700" x="100.795">Closing Tables</tspan><tspan x="100.795" dy="14">2.97 %</tspan></text><text x="119.532" y="84.732" text-anchor="end" transform="translate(10,10)" visibility="visible" style="font-family:'lucida grande','lucida sans unicode',verdana,arial,helvetica,sans-serif;font-size:11px;color:undefined;line-height:14px"><tspan style="font-weight:700" x="119.532">Freeing Items</tspan><tspan x="119.532" dy="14">28.07 %</tspan></text><text x="161.896" y="41.946" text-anchor="end" transform="translate(10,10)" visibility="visible" style="font-family:'lucida grande','lucida sans unicode',verdana,arial,helvetica,sans-serif;font-size:11px;color:undefined;line-height:14px"><tspan style="font-weight:700" x="161.896">Logging Slow Query</tspan><tspan x="161.896" dy="14">0.56 %</tspan></text><text x="250.192" y="12.946" text-anchor="end" transform="translate(10,10)" visibility="visible" style="font-family:'lucida grande','lucida sans unicode',verdana,arial,helvetica,sans-serif;font-size:11px;color:undefined;line-height:14px"><tspan style="font-weight:700" x="250.192">Cleaning Up</tspan><tspan x="250.192" dy="14">0.93 %</tspan></text></g><g class="highcharts-legend" transform="translate(265,363)"><rect width="19" height="-1" x=".5" y=".5" fill="none" stroke="#909090" stroke-width="1" rx="5" ry="5" visibility="hidden"/></g><g class="highcharts-tooltip" visibility="hidden"><rect width="0" height="0" x="2" y="2" fill="none" fill-opacity=".85" stroke="#000" stroke-opacity=".05" stroke-width="5" rx="5" ry="5" transform="translate(1,1)"/><rect width="0" height="0" x="2" y="2" fill="none" fill-opacity=".85" stroke="#000" stroke-opacity=".1" stroke-width="3" rx="5" ry="5" transform="translate(1,1)"/><rect width="0" height="0" x="2" y="2" fill="none" fill-opacity=".85" stroke="#000" stroke-opacity=".15" stroke-width="1" rx="5" ry="5" transform="translate(1,1)"/><rect width="0" height="0" x="2" y="2" fill="#FFF" fill-opacity=".85" stroke-width="2" rx="5" ry="5"/></g><g class="highcharts-tracker"><path fill="silver" fill-opacity="0" d="M 264.9738025341747 42.87500266786091 A 128.625 128.625 0 0 1 320.2277442043785 55.335087504463104 L 265 171.5 A 0 0 0 0 0 265 171.5 Z" transform="translate(10,10)" visibility="visible" style="cursor:pointer"/><path fill="silver" fill-opacity="0" d="M 320.22786036926334 55.335142732265396 A 128.625 128.625 0 0 1 330.7768544985443 60.96586030878363 L 265 171.5 A 0 0 0 0 0 265 171.5 Z" transform="translate(10,10)" visibility="visible" style="cursor:pointer"/><path fill="silver" fill-opacity="0" d="M 330.7769650326511 60.9659260856934 A 128.625 128.625 0 0 1 363.79082502337826 89.13032404944 L 265 171.5 A 0 0 0 0 0 265 171.5 Z" transform="translate(10,10)" visibility="visible" style="cursor:pointer"/><path fill="silver" fill-opacity="0" d="M 363.79090739300483 89.13042284030622 A 128.625 128.625 0 0 1 371.87967328726853 99.93795654813411 L 265 171.5 A 0 0 0 0 0 265 171.5 Z" transform="translate(10,10)" visibility="visible" style="cursor:pointer"/><path fill="silver" fill-opacity="0" d="M 371.87974484925854 99.93806342784319 A 128.625 128.625 0 0 1 388.4002181963205 135.21258104934324 L 265 171.5 A 0 0 0 0 0 265 171.5 Z" transform="translate(10,10)" visibility="visible" style="cursor:pointer"/><path fill="silver" fill-opacity="0" d="M 388.40025448367777 135.21270444957958 A 128.625 128.625 0 0 1 389.9688285917932 141.05032832040717 L 265 171.5 A 0 0 0 0 0 265 171.5 Z" transform="translate(10,10)" visibility="visible" style="cursor:pointer"/><path fill="silver" fill-opacity="0" d="M 389.9688590414024 141.05045328925098 A 128.625 128.625 0 0 1 392.4719144904373 154.31565709307912 L 265 171.5 A 0 0 0 0 0 265 171.5 Z" transform="translate(10,10)" visibility="visible" style="cursor:pointer"/><path fill="silver" fill-opacity="0" d="M 392.4719316747165 154.31578456500222 A 128.625 128.625 0 0 1 393.5169005587524 166.22772385285592 L 265 171.5 A 0 0 0 0 0 265 171.5 Z" transform="translate(10,10)" visibility="visible" style="cursor:pointer"/><path fill="silver" fill-opacity="0" d="M 393.51690583096433 166.2278523697591 A 128.625 128.625 0 0 1 393.6226855286268 172.27161674682318 L 265 171.5 A 0 0 0 0 0 265 171.5 Z" transform="translate(10,10)" visibility="visible" style="cursor:pointer"/><path fill="silver" fill-opacity="0" d="M 393.6226847569458 172.27174536950832 A 128.625 128.625 0 0 1 156.4746806874553 240.54089869859902 L 265 171.5 A 0 0 0 0 0 265 171.5 Z" transform="translate(10,10)" visibility="visible" style="cursor:pointer"/><path fill="silver" fill-opacity="0" d="M 156.47461164661087 240.54079017324517 A 128.625 128.625 0 0 1 152.5924640426705 234.0214881860763 L 265 171.5 A 0 0 0 0 0 265 171.5 Z" transform="translate(10,10)" visibility="visible" style="cursor:pointer"/><path fill="silver" fill-opacity="0" d="M 152.59240152123851 234.02137577850908 A 128.625 128.625 0 0 1 150.473501284591 230.04973712143735 L 265 171.5 A 0 0 0 0 0 265 171.5 Z" transform="translate(10,10)" visibility="visible" style="cursor:pointer"/><path fill="silver" fill-opacity="0" d="M 150.47344273491112 230.04962259490935 A 128.625 128.625 0 0 1 141.6213093429654 207.8605461559058 L 265 171.5 A 0 0 0 0 0 265 171.5 Z" transform="translate(10,10)" visibility="visible" style="cursor:pointer"/><path fill="silver" fill-opacity="0" d="M 141.6212729824809 207.86042277719696 A 128.625 128.625 0 0 1 253.00516739634025 43.435506029929655 L 265 171.5 A 0 0 0 0 0 265 171.5 Z" transform="translate(10,10)" visibility="visible" style="cursor:pointer"/><path fill="silver" fill-opacity="0" d="M 253.00529546084024 43.4354940351611 A 128.625 128.625 0 0 1 257.4938556988238 43.094204092144196 L 265 171.5 A 0 0 0 0 0 265 171.5 Z" transform="translate(10,10)" visibility="visible" style="cursor:pointer"/><path fill="silver" fill-opacity="0" d="M 257.49398410462345 43.0941965860641 A 128.625 128.625 0 0 1 264.9498387742907 42.87500978094718 L 265 171.5 A 0 0 0 0 0 265 171.5 Z" transform="translate(10,10)" visibility="visible" style="cursor:pointer"/></g></svg>