<svg xmlns="http://www.w3.org/2000/svg" xmlns:svg="http://www.w3.org/2000/svg" xmlns:xlink="http://www.w3.org/1999/xlink" id="Layer_1" width="200" height="200.001" version="1.0" viewBox="0 0 50 50.001" xml:space="preserve"><metadata id="metadata41"/><defs id="defs39"><radialGradient id="radialGradient3771" cx="11.545" cy="13.244" r="72.859" gradientTransform="matrix(1,0,0,0.4801,0,6.8852)" gradientUnits="userSpaceOnUse"><stop style="stop-color:#b9f176;stop-opacity:1" id="stop3773" offset=".015"/><stop style="stop-color:#b3ea73;stop-opacity:1" id="stop3775" offset=".586"/></radialGradient><linearGradient id="linearGradient3767" x1="5.83" x2="53.449" y1="29.329" y2="29.329" gradientUnits="userSpaceOnUse" xlink:href="#SVGID_2_"/><radialGradient id="radialGradient3769" cx="11.843" cy="46.108" r="23.809" fx="11.843" fy="46.108" gradientTransform="matrix(1.4269338,1.5034873,-2.4142355,2.2913091,106.26054,-77.345202)" gradientUnits="userSpaceOnUse" xlink:href="#radialGradient3771"/></defs><g id="g3" transform="translate(-4.64,-4.329)"><g id="g7"><linearGradient id="SVGID_1_" x1="4.64" x2="54.64" y1="29.329" y2="29.329" gradientUnits="userSpaceOnUse"><stop id="stop10" offset=".006" style="stop-color:#99de4e;stop-opacity:1"/><stop id="stop12" offset=".073" style="stop-color:#69ac21;stop-opacity:1"/><stop id="stop14" offset=".46" style="stop-color:#bce888;stop-opacity:1"/><stop id="stop16" offset=".549" style="stop-color:#bae784;stop-opacity:1"/><stop id="stop18" offset=".638" style="stop-color:#b3e578;stop-opacity:1"/><stop id="stop20" offset=".726" style="stop-color:#a8e264;stop-opacity:1"/><stop id="stop22" offset=".809" style="stop-color:#99de4a;stop-opacity:1"/><stop id="stop24" offset="1" style="stop-color:#779c00;stop-opacity:1"/></linearGradient><path id="path26" d="m 54.64,47.032 c 0,4.014 -3.284,7.298 -7.298,7.298 H 11.938 C 7.924,54.33 4.64,51.046 4.64,47.032 V 11.627 c 0,-4.014 3.284,-7.298 7.298,-7.298 h 35.404 c 4.014,0 7.298,3.284 7.298,7.298 v 35.405 z" style="fill:url(#SVGID_1_)"/><radialGradient id="SVGID_2_" cx="11.545" cy="13.244" r="72.859" gradientTransform="matrix(1,0,0,0.4801,0,6.8852)" gradientUnits="userSpaceOnUse"><stop id="stop29" offset=".015" style="stop-color:#b9f176;stop-opacity:1"/><stop id="stop31" offset=".586" style="stop-color:#b3ea73;stop-opacity:1"/></radialGradient><path id="path33" d="M 13.128,53.14 C 9.114,53.14 5.83,49.856 5.83,45.842 V 12.817 c 0,-4.014 3.284,-7.298 7.298,-7.298 h 33.023 c 4.014,0 7.298,3.284 7.298,7.298 v 33.024 c 0,4.014 -3.284,7.298 -7.298,7.298 H 13.128 z" style="fill:url(#radialGradient3769);fill-opacity:1"/><path id="path35" d="M 13.128,53.14 C 9.114,53.14 5.83,49.856 5.83,45.842 V 12.817 c 0,-4.014 3.284,-7.298 7.298,-7.298 h 33.023 c 4.014,0 7.298,3.284 7.298,7.298 v 33.024 c 0,4.014 -3.284,7.298 -7.298,7.298 H 13.128 z" style="fill:none;stroke:#fff;stroke-width:.5952;stroke-miterlimit:10"/></g></g></svg>