<svg xmlns="http://www.w3.org/2000/svg" xmlns:svg="http://www.w3.org/2000/svg" xmlns:xlink="http://www.w3.org/1999/xlink" id="svg2" width="200" height="200" version="1.1" style="display:inline"><defs id="defs4"><linearGradient id="linearGradient3779"><stop style="stop-color:#d82e00;stop-opacity:1" id="stop3781" offset="0"/><stop style="stop-color:#640000;stop-opacity:1" id="stop3783" offset="1"/></linearGradient><radialGradient id="radialGradient3785" cx="100.214" cy="-39.445" r="90.507" fx="100.214" fy="-39.445" gradientTransform="matrix(1,0,0,0.88576586,0,-4.5059837)" gradientUnits="userSpaceOnUse" xlink:href="#linearGradient3779"/><radialGradient id="radialGradient3787" cx="100.214" cy="-39.445" r="90.507" fx="100.214" fy="-39.445" gradientTransform="matrix(1,0,0,0.88576586,0,-4.5059837)" gradientUnits="userSpaceOnUse" xlink:href="#linearGradient3779"/><radialGradient id="radialGradient3789" cx="100.214" cy="-39.445" r="90.507" fx="100.214" fy="-39.445" gradientTransform="matrix(1,0,0,0.88576586,0,-4.5059837)" gradientUnits="userSpaceOnUse" xlink:href="#linearGradient3779"/><radialGradient id="radialGradient3791" cx="100.214" cy="-39.445" r="90.507" fx="100.214" fy="-39.445" gradientTransform="matrix(1,0,0,0.88576586,0,-4.5059837)" gradientUnits="userSpaceOnUse" xlink:href="#linearGradient3779"/><radialGradient id="radialGradient3793" cx="100.214" cy="-39.445" r="90.507" fx="100.214" fy="-39.445" gradientTransform="matrix(1,0,0,0.88576586,0,-4.5059837)" gradientUnits="userSpaceOnUse" xlink:href="#linearGradient3779"/><radialGradient id="radialGradient3795" cx="100.214" cy="-39.445" r="90.507" fx="100.214" fy="-39.445" gradientTransform="matrix(1,0,0,0.88576586,0,-4.5059837)" gradientUnits="userSpaceOnUse" xlink:href="#linearGradient3779"/><filter id="filter3836"><feGaussianBlur id="feGaussianBlur3838" stdDeviation="2.156"/></filter></defs><metadata id="metadata7"/><g style="opacity:.25;display:inline" id="g3797" transform="translate(0,152)"><g style="fill:#000;fill-opacity:1;filter:url(#filter3836)" id="g3799" transform="matrix(1.0651097,0,0,1.0651097,-3.4892133,-0.78347374)"><path style="fill:#000;fill-opacity:1;stroke:#000;stroke-width:5.56963253;stroke-linecap:butt;stroke-linejoin:miter;stroke-miterlimit:4;stroke-opacity:1;stroke-dasharray:none;display:inline" id="path3801" d="m 76.380607,-115.13311 c -18.137066,3.1332 -23.689711,5.82599 -33.64654,17.620355 -12.103227,17.150619 -6.717333,42.347279 -7.848763,53.31595 0.101478,15.432345 -0.62179,28.018883 5.035679,41.2199039 14.221459,16.9528361 32.763256,26.7082861 48.270335,39.0368491 19.530942,2.400995 9.517834,2.711944 29.065172,-0.317283 11.03352,-9.748261 36.09478,-26.0219586 45.68779,-37.0822241 3.46811,-14.5406099 1.41854,-26.3953129 2.59824,-42.9117359 -0.71615,-13.580071 1.22425,-44.944765 -9.96594,-54.497515 -7.37242,-8.56417 -18.43242,-14.85496 -34.71358,-17.22296 -10.99761,-1.30221 -26.918887,-1.19256 -44.482393,0.83863 z"/><g id="g3803" transform="matrix(4.8238904,0,0,3.7017959,-14.654161,-124.28824)" style="fill:#000;fill-opacity:1"><g id="g3805" transform="matrix(0.92546118,0,0,1,-7.9262089,1.7857143)" style="fill:#000;fill-opacity:1"><path style="fill:#000;fill-opacity:1;stroke:#000;stroke-width:1.27873123;stroke-linecap:butt;stroke-linejoin:miter;stroke-miterlimit:4;stroke-opacity:1;stroke-dasharray:none" id="path3807" d="m 49.091623,16.839286 c 0.896901,-0.741933 1.901156,-1.47843 3.084595,-1.639009 0.635296,-0.08815 1.360263,0.226799 1.610557,0.834304 0.414328,1.906951 -0.148071,3.862701 0.179136,5.778387 0.169159,1.477725 -0.746183,2.95822 -2.09741,3.546315 -0.661067,0.245971 -1.333787,0.501512 -2.038962,0.586721 -0.185794,0.01842 -0.37355,0.02051 -0.559301,3.87e-4"/><path id="path3809" d="m 19.498235,17.017857 c -0.896901,-0.741933 -1.901156,-1.47843 -3.084595,-1.639009 -0.635296,-0.08815 -1.360263,0.226799 -1.610557,0.834304 -0.414328,1.906951 0.148071,3.862701 -0.179136,5.778387 -0.169159,1.477725 0.746183,2.95822 2.09741,3.546315 0.661067,0.245971 1.333787,0.501512 2.038962,0.586721 0.185794,0.01842 0.37355,0.02051 0.559301,3.87e-4" style="fill:#000;fill-opacity:1;stroke:#000;stroke-width:1.27873123;stroke-linecap:butt;stroke-linejoin:miter;stroke-miterlimit:4;stroke-opacity:1;stroke-dasharray:none"/></g></g></g></g><g id="layer3" transform="translate(0,152)" style="display:inline"><g id="g3004" transform="matrix(1.0651097,0,0,1.0651097,-6.3463562,-7.2120452)" style="fill:url(#radialGradient3785);fill-opacity:1"><path id="path2997" d="m 76.380607,-115.13311 c -18.137066,3.1332 -23.689711,5.82599 -33.64654,17.620355 -12.103227,17.150619 -6.717333,42.347279 -7.848763,53.31595 0.101478,15.432345 -0.62179,28.018883 5.035679,41.2199039 14.221459,16.9528361 32.763256,26.7082861 48.270335,39.0368491 19.530942,2.400995 9.517834,2.711944 29.065172,-0.317283 11.03352,-9.748261 36.09478,-26.0219586 45.68779,-37.0822241 3.46811,-14.5406099 1.41854,-26.3953129 2.59824,-42.9117359 -0.71615,-13.580071 1.22425,-44.944765 -9.96594,-54.497515 -7.37242,-8.56417 -18.43242,-14.85496 -34.71358,-17.22296 -10.99761,-1.30221 -26.918887,-1.19256 -44.482393,0.83863 z" style="fill:url(#radialGradient3787);fill-opacity:1;stroke:#000;stroke-width:5.56937938;stroke-linecap:round;stroke-linejoin:round;stroke-miterlimit:4;stroke-opacity:1;stroke-dasharray:none;display:inline"/><g style="fill:url(#radialGradient3795);fill-opacity:1" id="g3054" transform="matrix(4.8238904,0,0,3.7017959,-14.654161,-124.28824)"><g style="fill:url(#radialGradient3793);fill-opacity:1" id="g3047" transform="matrix(0.92546118,0,0,1,-7.9262089,1.7857143)"><path id="path3026" d="m 49.091623,16.839286 c 0.896901,-0.741933 1.901156,-1.47843 3.084595,-1.639009 0.635296,-0.08815 1.360263,0.226799 1.610557,0.834304 0.414328,1.906951 -0.148071,3.862701 0.179136,5.778387 0.169159,1.477725 -0.746183,2.95822 -2.09741,3.546315 -0.661067,0.245971 -1.333787,0.501512 -2.038962,0.586721 -0.185794,0.01842 -0.37355,0.02051 -0.559301,3.87e-4" style="fill:url(#radialGradient3789);fill-opacity:1;stroke:#000;stroke-width:1.27873123;stroke-linecap:butt;stroke-linejoin:miter;stroke-miterlimit:4;stroke-opacity:1;stroke-dasharray:none"/><path style="fill:url(#radialGradient3791);fill-opacity:1;stroke:#000;stroke-width:1.27873123;stroke-linecap:butt;stroke-linejoin:miter;stroke-miterlimit:4;stroke-opacity:1;stroke-dasharray:none" id="path3050" d="m 19.498235,17.017857 c -0.896901,-0.741933 -1.901156,-1.47843 -3.084595,-1.639009 -0.635296,-0.08815 -1.360263,0.226799 -1.610557,0.834304 -0.414328,1.906951 0.148071,3.862701 -0.179136,5.778387 -0.169159,1.477725 0.746183,2.95822 2.09741,3.546315 0.661067,0.245971 1.333787,0.501512 2.038962,0.586721 0.185794,0.01842 0.37355,0.02051 0.559301,3.87e-4"/></g></g></g></g><g id="layer2" style="display:inline"><path style="fill:#fff;fill-opacity:1;stroke:#000;stroke-width:5;stroke-linecap:butt;stroke-linejoin:miter;stroke-miterlimit:4;stroke-opacity:1;stroke-dasharray:none" id="path3818" d="m 50.357143,136.07143 23.571428,-88.928573 20.714286,-3.928571 13.214283,35.357143 13.92857,-35.357143 21.07143,8.571428 5.35715,86.428576 -26.07143,5.35714 L 120.71429,100 110,121.07143 95,122.5 87.5,98.928571 78.928571,136.78571 z"/></g></svg>