<svg xmlns="http://www.w3.org/2000/svg" xmlns:svg="http://www.w3.org/2000/svg" version="1.1" viewBox="0 0 11000 8000" style="fill-rule:evenodd;pointer-events:none;width:550px;height:400px;background:#fff"><defs><linearGradient id=":0" x1="-1" x2="1" y1="0" y2="0" gradientTransform="matrix(341.5 341.5 -341.5 341.5 642 360)" gradientUnits="userSpaceOnUse"><stop offset="0" stop-color="#FFF" stop-opacity="1"/><stop offset="1" stop-color="#DFFFFE" stop-opacity="1"/></linearGradient></defs><g display="inline" opacity="1"><g display="inline" opacity="1"><g display="inline" opacity="1"><path fill="#7EB5EC" fill-opacity=".398" d="m 0 746 q 0 34 34 34 h 593 q 33 0 33 -34 v -713 q 0 -33 -33 -33 h -593 q -34 0 -34 33 v 713" transform="matrix(1 0 0 1 0 0) matrix(1 0 0 1 2950 2090) matrix(1 0 0 1 0 0)"/></g><g display="inline" opacity="1"><path fill="url(#:0)" d="m 0 708 q 0 32 32 32 h 557 q 31 0 31 -32 v -800 q 0 -31 -31 -31 h -557 q -32 0 -32 31 v 800" transform="matrix(1 0 0 1 0 0) matrix(1 0 0 1 2950 2090) matrix(1 0 0 1 20 150)"/></g></g></g></svg>