<svg xmlns="http://www.w3.org/2000/svg" xmlns:xlink="http://www.w3.org/1999/xlink" id="signature" width="400" height="164" version="1.1"><defs><style type="text/css">text{fill:#d7851a;width:100%;font-family:&quot;Palatino Linotype&quot;;font-size:12px}</style><svg id="frame" width="21" height="21" preserveAspectRatio="xMinYMin slice"><image width="42" height="42" xlink:href="http://us.battle.net/d3/static/images/icons/frames/trait-21.png"/></svg><svg id="rune_none"/><svg id="rune_a" width="16" height="16" preserveAspectRatio="xMinYMin slice"><image width="96" height="16" xlink:href="http://us.battle.net/d3/static/images/icons/runes/small.png"/></svg><svg id="rune_b" width="16" height="16" preserveAspectRatio="xMinYMin slice"><image width="96" height="16" x="-16" xlink:href="http://us.battle.net/d3/static/images/icons/runes/small.png"/></svg><svg id="rune_c" width="16" height="16" preserveAspectRatio="xMinYMin slice"><image width="96" height="16" x="-32" xlink:href="http://us.battle.net/d3/static/images/icons/runes/small.png"/></svg><svg id="rune_d" width="16" height="16" preserveAspectRatio="xMinYMin slice"><image width="96" height="16" x="-48" xlink:href="http://us.battle.net/d3/static/images/icons/runes/small.png"/></svg><svg id="rune_e" width="16" height="16" preserveAspectRatio="xMinYMin slice"><image width="96" height="16" x="-64" xlink:href="http://us.battle.net/d3/static/images/icons/runes/small.png"/></svg></defs><image id="crest" width="200" height="200" x="50%" y="0" transform="translate(-100, -18)" xlink:href="http://us.battle.net/d3/static/images/hero/barbarian/crest.png"/><svg preserveAspectRatio="xMinYMax meet" viewBox="0 0 400 120"><rect width="100%" height="90" x="0" y="0" rx="10" ry="10" style="fill:#000;opacity:.5"/><svg width="185" y="10"><svg id="skill_0"><image width="21" height="21" x="100%" y="0" transform="translate(-21, 0)" xlink:href="http://us.media.blizzard.com/d3/icons/skills/21/barbarian_frenzy.png"/><use x="100%" y="2" transform="translate(-42, 0)" xlink:href="#rune_e"/><text x="100%" y="13" transform="translate(-48, 0)" style="text-anchor:end">Triumph</text></svg><svg id="skill_2" y="24"><image width="21" height="21" x="100%" y="0" transform="translate(-21, 0)" xlink:href="http://us.media.blizzard.com/d3/icons/skills/21/barbarian_seismicslam.png"/><use x="100%" y="2" transform="translate(-42, 0)" xlink:href="#rune_b"/><text x="100%" y="13" transform="translate(-48, 0)" style="text-anchor:end">Rumble</text></svg><svg id="skill_4" y="48"><image width="21" height="21" x="100%" y="0" transform="translate(-21, 0)" xlink:href="http://us.media.blizzard.com/d3/icons/skills/21/barbarian_ignorepain.png"/><use x="100%" y="2" transform="translate(-42, 0)" xlink:href="#rune_b"/><text x="100%" y="13" transform="translate(-48, 0)" style="text-anchor:end">Iron Hide</text></svg></svg><svg width="21" x="190" y="10"><svg id="trait_0"><image width="21" height="21" xlink:href="http://us.media.blizzard.com/d3/icons/skills/21/barbarian_passive_ruthless.png"/><use xlink:href="#frame"/></svg><svg id="trait_1"><image width="21" height="21" y="24" xlink:href="http://us.media.blizzard.com/d3/icons/skills/21/barbarian_passive_weaponsmaster.png"/><use y="24" xlink:href="#frame"/></svg><svg id="trait_2"><image width="21" height="21" y="48" xlink:href="http://us.media.blizzard.com/d3/icons/skills/21/barbarian_passive_bloodthirst.png"/><use y="48" xlink:href="#frame"/></svg></svg><svg width="185" x="215" y="10"><svg id="skill_1"><image width="21" height="21" x="0" y="0" xlink:href="http://us.media.blizzard.com/d3/icons/skills/21/barbarian_hammeroftheancients.png"/><use x="26" y="2" xlink:href="#rune_a"/><text x="48" y="13">Smash</text></svg><svg id="skill_3" y="24"><image width="21" height="21" x="0" y="0" xlink:href="http://us.media.blizzard.com/d3/icons/skills/21/barbarian_sprint.png"/><use x="26" y="2" xlink:href="#rune_e"/><text x="48" y="13">Gangway</text></svg><svg id="skill_5" y="48"><image width="21" height="21" x="0" y="0" xlink:href="http://us.media.blizzard.com/d3/icons/skills/21/barbarian_wrathoftheberserker.png"/><use x="26" y="2" xlink:href="#rune_d"/><text x="48" y="13">Thrive on Chaos</text></svg></svg></svg></svg>