<svg xmlns="http://www.w3.org/2000/svg" xmlns:svg="http://www.w3.org/2000/svg" xmlns:xlink="http://www.w3.org/1999/xlink" id="svg3582" width="72" height="30" x="0" style="enable-background:new 0 0 72 30" y="0" version="1.1" viewBox="0 0 72 30" xml:space="preserve"><g id="layer1" transform="translate(-218.28571,-417.36218)"><g id="g3539" transform="translate(-86.129586,83.884043)"><linearGradient id="path3299_1_" x1="580.414" x2="580.414" y1="72.01" y2="44.913" gradientTransform="matrix(1 0 0 -1 -240 406.4563)" gradientUnits="userSpaceOnUse"><stop offset="0" style="stop-color:#8ea4c1"/><stop offset=".5" style="stop-color:#5877a2"/><stop offset=".5" style="stop-color:#486a9a"/><stop offset="1" style="stop-color:#4b6c9c"/></linearGradient><path id="path3299" d="M375.415,357.735 c0,2.103-1.8,3.808-4.02,3.808h-53.922c-2.075,0-12.059-12.479-12.059-13.311c0-0.862,9.667-13.786,12.059-13.786h53.922 c2.22,0,4.02,1.705,4.02,3.808V357.735z" style="fill:url(#path3299_1_)"/><linearGradient id="path3322_1_" x1="580.415" x2="580.415" y1="43.946" y2="72.978" gradientTransform="matrix(1 0 0 -1 -240 406.4563)" gradientUnits="userSpaceOnUse"><stop offset="0" style="stop-color:#385174"/><stop offset=".297" style="stop-color:#385174"/><stop offset=".736" style="stop-color:#586b86"/><stop offset=".778" style="stop-color:#556781"/><stop offset=".839" style="stop-color:#4f5e73"/><stop offset=".911" style="stop-color:#434e5d"/><stop offset=".992" style="stop-color:#333941"/><stop offset="1" style="stop-color:#31373f"/></linearGradient><path id="path3322" d="M371.396,334.446 c2.221,0,4.02,1.705,4.02,3.808v19.481c0,2.103-1.799,3.808-4.02,3.808h-53.922c-2.074,0-12.058-12.479-12.058-13.311 c0-0.862,9.5-13.786,12.417-13.786H371.396 M371.396,333.478h-53.48c-3.917,0-13.5,13.739-13.5,14.754 c0,1.059,9.5,14.278,13.058,14.278h53.922c2.768,0,5.02-2.144,5.02-4.775v-19.481 C376.415,335.621,374.163,333.478,371.396,333.478L371.396,333.478z" style="fill:url(#path3322_1_)"/><path id="path3324" d="M372.208,362.432 c-0.263,0.051-0.535,0.078-0.812,0.078h-53.922c-0.555,0-1.855,0-7.578-6.694c-1.465-1.715-4.652-5.536-5.34-7.105 c-0.088,0.202-0.14,0.371-0.14,0.49c0,1.058,3.833,5.654,5.479,7.584c5.723,6.693,7.023,6.693,7.578,6.693h53.921 c2.769,0,5.021-2.143,5.021-4.775v-0.968C376.415,360.103,374.588,362.059,372.208,362.432z" style="fill:#9dadc1"/><text id="text3330" transform="matrix(1 0 0 1 317.4158 351.7965)" style="opacity:.5;fill:#5d6876;enable-background:new;font-family:'Helvetica-Bold';font-size:12">Featured</text><text id="text3334" transform="matrix(1 0 0 1 317.4158 352.7965)" style="fill:#fff;font-family:'Helvetica-Bold';font-size:12">Featured</text></g></g></svg>